<?xml version="1.0" standalone="no"?>
<!DOCTYPE svg PUBLIC "-//W3C//DTD SVG 1.1//EN" "http://www.w3.org/Graphics/SVG/1.1/DTD/svg11.dtd" >
<svg>
<metadata>
Created by FontForge 20090622 at Sun Nov 11 20:49:27 2018
 By ffonts
</metadata>
<defs>
<font id="StussyScript-Regular" horiz-adv-x="250" >
  <font-face 
    font-family="Stussy Script"
    font-weight="400"
    font-stretch="normal"
    units-per-em="1000"
    panose-1="0 0 0 0 0 0 0 0 0 0"
    ascent="800"
    descent="-200"
    x-height="799"
    cap-height="800"
    bbox="-1 -200.941 821.065 800.882"
    underline-thickness="50"
    underline-position="-50"
    unicode-range="U+000D-U+007A"
  />
<missing-glyph horiz-adv-x="500" 
d="M63 0v800h375v-800h-375v0zM125 63h250v675h-250v-675v0z" />
    <glyph glyph-name=".notdef" horiz-adv-x="500" 
d="M63 0v800h375v-800h-375v0zM125 63h250v675h-250v-675v0z" />
    <glyph glyph-name="NULL" horiz-adv-x="0" 
 />
    <glyph glyph-name="NULL" horiz-adv-x="0" 
 />
    <glyph glyph-name="nonmarkingreturn" unicode="&#xd;" 
 />
    <glyph glyph-name="space" unicode=" " 
 />
    <glyph glyph-name="A" unicode="A" horiz-adv-x="563" 
d="M496 381q4 -6 11.5 -8.5t16 -4.5t15.5 -5.5t9 -11.5q1 -17 -4 -28.5t-11.5 -20.5t-14 -18t-11.5 -20q7 -54 11 -111t8.5 -113.5t12.5 -110t24 -99.5q-8 -20 -27.5 -26t-41 -3t-40 13.5t-24.5 25.5q-3 8 -1.5 15.5t5 15l7.5 15.5t4 16q2 16 -3 31.5t-7 34.5q-4 38 -6 77
l-4 77t-6.5 74t-13.5 68q-14 4 -30 5t-32.5 -0.5t-32 -4.5t-28.5 -5q-8 -4 -13 -15.5t-10 -27t-10 -33.5t-13 -36q-12 -28 -28.5 -56.5t-22.5 -51.5q-4 -15 -4.5 -31t-2 -29.5t-5 -24.5t-13.5 -17q-9 -5 -24.5 -4t-30.5 6.5t-27 14t-15 19.5q-3 12 -0.5 19.5t7 14t10 12.5
t8.5 15q19 57 41 108t41 107q-10 12 -25 14.5t-32.5 0.5t-35.5 -5t-33.5 -3t-27 5.5t-15.5 22.5q-3 12 0 22.5t8 19.5t11.5 15.5t11.5 9.5q13 6 33.5 6t43.5 -2t44.5 -3t36.5 4q9 3 17.5 12.5t16 23t14.5 29.5t13 32q15 39 31 90t34.5 101t39 92.5t44.5 63.5q24 0 38 -10
l28 -21q8 -44 11 -93.5t5 -99.5t4.5 -100t9.5 -95zM318 366q6 -6 16 -6.5t21 1.5t21 6.5t18 8.5q0 38 -3.5 72.5t-1.5 75.5h-15l-27.5 -79t-28.5 -79z" />
    <glyph glyph-name="B" unicode="B" horiz-adv-x="557" 
d="M363 597q7 1 16 0.5t17 0.5t14.5 4.5t9.5 13.5q-49 19 -106.5 39t-110.5 23q-8 -24 -15 -57.5t1 -60.5q23 1 46 5t45 10l42.5 12t40.5 10zM351 169q22 60 17.5 110.5t-29.5 88t-68 60.5t-98 26l-12.5 -137.5l-13 -144.5t-14 -144.5t-15.5 -136.5q13 -1 20 3
q26 20 57 49.5t60.5 65.5t55 77t40.5 83zM556 626q3 -19 -2.5 -35t-16.5 -29t-26 -22t-30 -13q-16 -5 -35 -7.5l-39.5 -5l-41 -5t-39.5 -6.5q-2 0 -3.5 -0.5t-3.5 -0.5q78 -42 109.5 -116.5t6.5 -176.5q-8 -32 -23 -66.5t-34 -68t-40.5 -64t-43.5 -54.5q-16 -18 -30 -37.5
t-28 -32.5q-12 -11 -29.5 -24l-36 -25.5t-36 -22t-28.5 -11.5q-24 -5 -46.5 -1.5t-40.5 15.5q-6 4 -11 8t-7 9v1q-1 0 -1 1v1q-2 22 7 34t17 25q9 145 20.5 286t28.5 277q-4 8 -7.5 16t-2.5 17q1 13 7 23.5t14 18.5l14 87t16 85q-9 14 -11 28.5t1.5 27.5t13 23t24.5 15
q16 -2 32 -8t32.5 -13l33 -14.5t34.5 -11.5q48 -11 91.5 -23t87.5 -29q18 -7 35.5 -15t31.5 -17t24 -19.5t12 -23.5z" />
    <glyph glyph-name="C" unicode="C" horiz-adv-x="678" 
d="M566 -24q-12 -6 -23.5 -14.5l-21.5 -16.5l-21 -19l-57.5 -42t-61 -38.5t-64.5 -29.5t-66 -15q-70 -5 -120 14t-80.5 60t-42.5 102.5t-6 139.5q4 62 20.5 135t40.5 144t54 134t61 104q19 25 47 52t60.5 50t67.5 40t68 22q36 5 82.5 -2t87.5 -23.5t66.5 -41t19.5 -55.5
q-2 -11 -11 -19t-22 -13t-28.5 -6.5t-30.5 2.5q-19 4 -28 14.5t-15.5 22t-15 22t-26.5 14.5q-40 8 -80.5 -11t-75.5 -50.5t-63 -67t-42 -60.5q-20 -35 -39 -79t-35 -92.5t-28.5 -98t-19.5 -94.5q-5 -34 -8 -68t-1 -67t10 -63.5t24 -57.5q78 -14 134.5 3t100.5 49t80 73
t74 76q9 8 26 3t34.5 -18t30.5 -31t13.5 -35t-14.5 -30.5t-55 -17.5z" />
    <glyph glyph-name="D" unicode="D" horiz-adv-x="540" 
d="M46 93q5 57 5.5 94.5t-1 65.5t-4 52.5t-2.5 55.5q0 33 2 72t3 77t0.5 71.5t-5.5 56.5q-3 12 -9 21.5l-12.5 19t-11.5 19.5t-5 21q0 13 4 24.5t10 21.5t12.5 17.5t11.5 12.5q124 14 222 -7.5t163.5 -75t93.5 -136t11 -190.5q-7 -44 -22.5 -91.5t-37 -94t-46.5 -89.5
t-51 -77q-20 -26 -35.5 -54t-33.5 -47q-14 -15 -36 -35t-45 -38.5t-45 -33t-37 -18.5q-41 -12 -80 -5.5t-65 36.5q3 21 11.5 37l16.5 32.5t13.5 35.5t2.5 46q-8 9 -9 23t1 29t5.5 29t4.5 22zM176 -67q33 30 70.5 73t72.5 94t64 108t45 115q22 82 10 149t-49.5 114.5
t-97.5 72.5t-134 23v-185v-194t-1.5 -193.5t-4.5 -182.5q19 0 25 6z" />
    <glyph glyph-name="E" unicode="E" horiz-adv-x="415" 
d="M194 681q-29 -40 -43.5 -93.5t-26.5 -110.5q15 -7 34 -13.5t40.5 -10.5t44 -4t43.5 6q0 9 5 16q-15 25 -26 54l-22 59q-5 13 -8 28t-8 28.5t-12.5 24t-20.5 16.5zM248 272q10 23 33 33t46.5 7.5t41.5 -17t19 -40.5q1 -11 -4.5 -21t-12.5 -19t-14.5 -17.5t-11.5 -17.5
q-6 -15 -10.5 -34.5t-7.5 -40.5l-6.5 -43.5t-7.5 -43.5q-9 -38 -20.5 -78t-28.5 -67q-11 -18 -27 -34.5t-37.5 -27t-47 -11.5t-55.5 13q-11 5 -26 21t-22 28q-17 27 -28 62.5t-17 75.5q0 14 -1 41t-2.5 62.5t-1.5 78t2.5 86.5t7.5 88.5t15 84.5q9 38 17.5 79.5t19 81.5
t24.5 76t34 63q6 9 16.5 19t22.5 19t24 15t23 6q6 0 16 -4t20.5 -10.5t19.5 -14t14 -14.5q5 -8 5.5 -21t5.5 -28q8 -25 21 -57.5l27 -66.5q12 -28 26.5 -49t26.5 -40.5t20 -41.5t8 -52q-21 -13 -51.5 -25t-64.5 -18.5t-68.5 -5t-63.5 16.5q-18 -5 -28.5 -7t-30.5 1
q-15 -26 -20 -65.5t-7 -79.5q-3 -45 -2 -93t7.5 -92t19.5 -80.5t34 -58.5q27 12 43.5 41.5t27 66t17.5 76.5t15 75q3 13 6.5 26.5t6 28.5t1 31t-8.5 33z" />
    <glyph glyph-name="F" unicode="F" horiz-adv-x="597" 
d="M32 756q66 3 136 4t140 5t137 11.5t126 23.5q16 -12 22 -28.5t4.5 -35t-9 -36.5t-17.5 -33q-32 5 -62.5 3.5t-62 -6l-63.5 -9.5t-66 -7q-21 -2 -43 -1t-43 0.5t-41 -4t-37 -14.5q-1 -20 -0.5 -38t6.5 -32q32 0 74.5 2t87 4.5t87 4.5t74.5 2q12 -14 13 -32t-4 -35
t-15 -31.5t-19 -22.5q-73 9 -147.5 2.5t-144.5 -14.5q0 -71 0.5 -150t3 -159t8 -158t14.5 -148q-10 -15 -28.5 -20.5t-38.5 -3.5t-38.5 10t-27.5 20q8 77 9.5 161.5t-2 170.5t-10.5 169.5t-17 157.5q7 12 10 28.5t3.5 35t0 38.5t-0.5 38q-5 10 -13 16t-15.5 11t-14 11.5
t-8.5 18.5q-2 10 1.5 18.5t8.5 17t11 17t11 17.5z" />
    <glyph glyph-name="G" unicode="G" horiz-adv-x="649" 
d="M482 242q21 3 43.5 9.5t44.5 9.5t42 -1.5t37 -23.5q0 -21 -4.5 -37.5t-11.5 -31l-14 -29t-13 -32.5q-13 -41 -23 -85t-33 -82q-11 -17 -30.5 -37l-37.5 -37q-17 -17 -33.5 -30.5t-35 -22.5t-42.5 -11.5t-56 2.5q-13 2 -33.5 10t-43 20t-44.5 26.5t-39 30.5
q-25 24 -43 49.5t-31.5 53.5t-25 58l-24.5 62l-19.5 43t-11.5 37t4.5 35.5t8.5 38.5q1 22 -1 44.5l-4 46t-3 47.5t1 48q5 60 18 115t34.5 100.5t51.5 79t69 51.5q52 5 97 -8t82 -35.5t65 -51t47 -54.5q7 -10 12 -21t9.5 -22.5t9.5 -22.5t12 -20q10 -14 22.5 -23l23.5 -17.5
t18.5 -19.5t9.5 -27q4 -35 -14.5 -60.5t-47.5 -36.5t-63 -5t-60 34q-2 16 1.5 25.5t8 18t8 18t1.5 25.5q-15 35 -33 63.5t-48 59.5q-11 12 -26.5 26.5t-33.5 27t-37.5 19t-38.5 2.5q-23 -6 -37 -28t-23 -51t-13 -61.5l-7 -57.5l-6.5 -62t-3.5 -66v-1q1 -14 2 -26.5t3 -23.5
q7 -45 17 -97t22 -96q4 -16 9.5 -31.5t12.5 -30.5l1 -1q8 -17 19 -34t23 -32q22 -28 51.5 -49.5t60 -28.5t61 4t55.5 49q10 15 19 37.5t15 46.5t8.5 46.5t1.5 36.5q-17 -1 -34.5 2.5t-36.5 6t-41 2t-48 -8.5q-17 -5 -27.5 0.5t-14.5 17.5t-3 27t6.5 28t14.5 21t21 7
q36 -5 75 -4t75 6z" />
    <glyph glyph-name="H" unicode="H" horiz-adv-x="351" 
d="M345 352q-12 -11 -16.5 -30t-4.5 -41t2 -45t2 -42q-1 -63 -6 -129t-5 -122q0 -14 2.5 -36.5t2 -44.5t-7 -39.5t-24.5 -21.5q-7 -2 -18 1t-21.5 9t-19.5 13.5t-12 14.5q-6 13 -5.5 29.5t3.5 34.5t7 36.5t6 35.5q4 43 3 91t-1.5 93.5t0.5 87t9 72.5q-8 6 -20.5 8t-27.5 1
t-29.5 -4t-26.5 -5q-9 -12 -12 -29t-3.5 -37t0 -42t-0.5 -45q-4 -42 -11.5 -85t-5.5 -78q1 -15 5.5 -34.5l9 -39t6 -36.5t-3.5 -27q-7 -13 -23.5 -19.5t-35 -6t-36 9.5t-25.5 27q-2 10 0.5 17t6 12.5t6.5 11t3 14.5q0 90 6.5 178t15 173.5t16 169.5t10.5 167v5q1 4 1 14v14
q0 14 1.5 30t5 31t10.5 26.5t19 16.5t19 5q15 -1 26.5 -9.5t19.5 -19.5t14 -21.5t11 -15.5q-16 -24 -25 -54.5t-14 -65t-7 -72t-3 -75.5q9 -4 22 -5.5t27 -1.5t27 2t22 5q7 41 6 90.5t-1 100.5q0 25 -1 49.5t-1 47.5t2.5 43t10.5 35q21 10 43.5 3t33.5 -20q3 -36 3.5 -77.5
t0 -85.5l-1 -88t0.5 -84v-5l1 -1q0 -4 0.5 -7t0.5 -7h3q5 -16 8 -35.5t-5 -35.5z" />
    <glyph glyph-name="I" unicode="I" horiz-adv-x="150" 
d="M129 -13q-1 -14 -1.5 -22t-0.5 -14v-11t2 -14q4 -25 5.5 -50.5t-5.5 -44t-25.5 -27.5t-52.5 0q-28 20 -37 50.5t4 71.5q-3 12 -6.5 21t-5 16.5t0.5 13.5t10 12q4 19 4 27t-1.5 11l-2.5 5t1 10q10 45 13 98.5t4 107.5q0 46 1 96t1 100t-1.5 97.5t-6.5 88.5q-3 22 -11 41.5
t-17 36.5q-2 4 -0.5 18.5t10 31t24 29.5t41.5 13t42 -11t23.5 -25t8 -27.5t-4.5 -17.5v-1q0 -1 -1 -2q-10 -21 -12 -46.5t-3 -50.5q-3 -67 -2.5 -139.5t2 -146t2 -147.5t-1.5 -144l1.5 -18t0.5 -11t-1 -10.5t-1 -15.5z" />
    <glyph glyph-name="J" unicode="J" horiz-adv-x="416" 
d="M415 743q1 -8 -1.5 -16t-7 -17t-9 -20.5t-7.5 -27.5q-3 -20 -3.5 -44.5t0.5 -50.5l2 -52t1 -48q1 -44 -10 -91.5t-15 -97.5q-5 -50 -7.5 -99t-6.5 -94t-9.5 -84t-14.5 -69q-7 -23 -19.5 -47t-30 -43t-39.5 -31t-49 -11q-24 0 -45 14t-39 35t-31.5 45t-22.5 44
q-22 50 -29 96t-17 99q-2 9 -3 22.5t-1.5 27.5t-0.5 26t1 18q2 17 2.5 31.5t2.5 35.5q1 20 -0.5 38.5t0 34t9.5 26t28 14.5q14 3 28.5 -0.5t27 -11.5t21 -19.5t11.5 -24.5q3 -14 -1 -29t-10.5 -30.5t-12.5 -32t-7 -34.5q-1 -16 1.5 -42.5t6 -52.5t7.5 -47t5 -25
q10 -41 21.5 -77.5t34.5 -54.5q18 6 28 20.5t15 33t8 39l6 39.5q14 80 28 171t22 194q5 60 11 117.5t2 102.5q-2 21 -9 40t-12 37t-5 34.5t13 32.5q17 12 39 13t41.5 -6t34 -20.5t17.5 -30.5z" />
    <glyph glyph-name="K" unicode="K" horiz-adv-x="537" 
d="M451 -13q8 -17 20 -34.5l23.5 -34t19 -32t6.5 -30.5q-2 -21 -16 -37.5t-35 -18.5t-34.5 9t-23 28.5t-16.5 39t-15 41.5q-22 52 -49 108l-54.5 110l-54.5 104l-49 91q-11 -13 -16 -29.5t-8 -34.5t-4.5 -37.5t-4.5 -38.5q-5 -25 -11 -49t-10.5 -49t-5.5 -51.5t5 -56.5
q-9 -7 -14.5 -15t-10.5 -14.5t-12 -11t-19 -4.5q-5 0 -16 6.5t-21.5 17t-18.5 23.5t-6 25q2 15 7.5 29t9.5 33q9 41 13 89.5t15 100.5q15 71 32 141t29 155q8 54 13 99.5t-13 84.5q8 17 18.5 32t26.5 24q41 -9 77 -21q14 -5 18.5 -16.5t3 -27t-7 -32.5t-11.5 -32l-5 -25
t-11 -59.5t-11.5 -70t-7.5 -57.5q35 11 72.5 19t70.5 21h1q11 3 19.5 7t16.5 9q13 8 24 17.5t19 21.5q0 1 -1 1l16 15.5t19 12.5q15 7 29 5.5t25 -7.5t18 -15t10 -19t1 -22t-6.5 -22.5t-10 -17.5t-10.5 -7q-8 0 -16 -5t-29 -15v1q-46 -23 -95.5 -41l-100.5 -37v-28
q18 -19 30.5 -42.5t24 -48l23.5 -49t28 -44.5q6 -6 7 -16t5 -18q2 -8 9 -26t16.5 -40t20 -44t19.5 -38z" />
    <glyph glyph-name="L" unicode="L" horiz-adv-x="594" 
d="M269 619q3 -10 2.5 -14.5t-3 -9t-6 -11.5t-7.5 -23q2 -15 3 -20.5t1 -8.5t-1.5 -7.5t-2.5 -16.5q-18 -59 -32.5 -122l-29 -126t-30.5 -124.5t-38 -117.5q13 -11 29 -16t32.5 -7.5t34 -4.5t34.5 -6q65 -14 132 -35.5l132 -40.5q7 0 12 2t9.5 4.5t9.5 5t12 2.5
q21 -10 27.5 -26.5t2.5 -34t-16.5 -33t-28.5 -23t-32.5 -4t-29.5 24.5q-48 10 -97 25l-99 30t-101 27.5t-102 18.5q-11 1 -24 0t-25 0t-22 6t-15 18q12 38 30 74t32 84q4 13 5 26.5t5 26.5q3 11 10 20t9 19q2 9 0 18.5t0 19.5q2 13 9 24t11 24q13 54 20.5 109.5t27.5 106.5
q-2 12 -4 19t-2 12t2 10.5t8 16.5q1 26 3 39.5t7 32.5q4 19 9 34t5 43q0 11 -3.5 22.5t-0.5 20.5q4 16 15.5 28t26.5 16.5t31.5 1t31.5 -16.5q4 -20 0 -40t-10 -40t-10 -41t1 -42z" />
    <glyph glyph-name="M" unicode="M" horiz-adv-x="714" 
d="M611 792q-1 -104 1.5 -211.5t10 -213.5t21 -207t35.5 -192q2 -11 8 -22t11 -22q5 -10 9 -19t6 -20q5 -26 -2.5 -51.5t-27.5 -30.5q-17 -5 -25.5 -2.5t-15 9.5t-12.5 15.5t-16 16.5q-5 4 -7.5 18t-12.5 43q-8 21 -7.5 28.5t0.5 16.5q-3 35 -10 71.5l-15 75t-14.5 78
t-9.5 81.5q-5 63 -7.5 128.5t-6.5 137.5q-11 -9 -18.5 -22t-12.5 -29.5t-9.5 -34t-8.5 -35.5q-16 -61 -29 -136t-24 -150q-4 -27 -13 -52.5t-7 -49.5q1 -12 9 -27t6 -26q-3 -17 -14.5 -24t-25.5 -7.5t-28 3t-24 9.5q-17 39 -30.5 84l-27.5 90q-9 28 -13.5 58t-11.5 68
q-2 17 -9.5 35.5t-9.5 37.5q-2 12 -1 24.5t1 25t-1.5 24.5t-8.5 23q-11 -6 -15 -15.5t-5.5 -20t-1.5 -21.5t-2 -21q-5 -18 -12 -36t-12 -36q-14 -52 -26.5 -104.5t-31.5 -94.5v-49q-12 -12 -28 -15.5t-31.5 0t-28.5 13t-19 22.5q56 144 94.5 303t70.5 327q8 5 10 16.5
t9 17.5v39q19 6 35 15.5t38 13.5q13 -8 18 -19.5t5 -24.5t-2 -26.5t-2 -26.5q0 -54 7 -111.5t16 -115l18.5 -113.5t16.5 -106q10 4 14 11.5t5 16t0 18t1 17.5q4 23 10.5 45l13.5 47l26.5 100l26.5 99q17 57 34.5 106.5t43.5 96.5q12 2 25 8t26 10.5t26 5t25 -8.5z" />
    <glyph glyph-name="N" unicode="N" horiz-adv-x="495" 
d="M495 -97q-6 -17 -22 -25t-35 -9t-37.5 5.5t-29.5 18.5q-20 79 -44.5 153.5t-53 145.5l-58.5 140l-60 138q-7 -3 -9.5 -10t-2.5 -16t0.5 -18.5t0.5 -17.5q-1 -52 -4 -116.5t-7 -131.5t-9.5 -132.5t-10.5 -119.5q-2 -22 -3 -41t-4 -33t-11 -23t-23 -11q-10 -1 -22 4
t-22.5 13.5t-18.5 19t-9 20.5q-1 5 1.5 12t6.5 15t7.5 17t5.5 18q5 22 6.5 48t1.5 54.5v58.5t2 60q1 22 3 50t4 59l4 62.5t5 60.5q3 41 2 89.5t-1.5 95t2.5 87.5t15 67.5t35.5 34t64.5 -12.5q13 -22 10 -62l39 -96l39 -95l40.5 -90.5t46.5 -84.5q7 7 8.5 15.5t0 17.5
t-4.5 18.5t-4 20.5q-2 34 -2 75t0.5 83t0 82.5t-3.5 74.5q-1 11 -6.5 28.5t-3.5 27.5q3 19 18.5 32t35 17.5t37.5 -1t27 -22.5q9 -18 3 -37.5t-8 -39.5q-8 -96 -4 -199t14 -206t23 -202z" />
    <glyph glyph-name="O" unicode="O" horiz-adv-x="733" 
d="M452 229q-1 -21 -16 -33t-35 -16t-42 0t-37 15q-16 12 -20.5 29.5t-5 37t0.5 40.5t-3 40q-11 -10 -20 -33.5t-14.5 -53t-7 -62t2.5 -60.5t14.5 -48t29.5 -25q31 -9 61 9t54.5 46.5t42 60.5t23.5 53t9.5 46.5t2 49t-8 42t-20.5 26.5q-16 -2 -26 -10.5t-16.5 -20
t-12.5 -24.5t-13 -24q6 -15 16 -23.5l19.5 -16.5t16 -17.5t5.5 -27.5zM729 359q5 -32 4 -69.5t-6 -76.5t-15 -76t-23 -66q-11 -26 -32.5 -54l-40.5 -53q-24 -31 -53 -60.5t-64.5 -52.5t-79 -37t-97.5 -14q-38 0 -69 13t-61 27q-33 16 -57 33t-43.5 39.5t-37 52.5t-37.5 72
h-1q-8 21 -12 52t-4 84q0 38 3 71.5t9.5 64.5t16 61t22.5 63t25.5 60.5t26.5 52t30 48t37 48.5q17 21 29 34t25 23t29 20t41 24q24 14 56.5 28t69.5 22t77 7t79 -17q7 -3 23 -12.5t31.5 -22t28 -26t13.5 -24.5q1 -15 -7 -29.5t-20.5 -25t-28 -15.5t-28.5 -3q-12 2 -26 15.5
t-20 23.5q-6 9 -6 16.5t-0.5 14.5t-4.5 13t-17 13q-18 9 -47 5.5t-55 -11.5q-45 -14 -83.5 -43t-70 -67.5t-56.5 -84t-44 -93.5q-13 -34 -26 -73.5t-21 -84t-10 -91.5t6 -96q6 -33 22.5 -68t41.5 -64.5t57.5 -49t70.5 -21.5q41 -2 78 12t68.5 37t57.5 52t45 57l26 39.5
t21 39.5t15.5 46.5t10.5 61.5q6 45 10 82t-10 76q-10 29 -26 54t-35 44t-38.5 30t-35.5 13q-26 3 -46 -4.5t-36.5 -20.5t-30.5 -30.5l-28 -34.5q15 8 34 17t40.5 14t45.5 4t49 -13q15 -7 28.5 -22t24.5 -33t18 -35t8 -28q1 -8 -0.5 -23t-4 -32.5t-6 -34.5t-6.5 -29
q-7 -32 -24.5 -66t-40.5 -65t-49 -55t-50 -34q-8 -4 -26 -8t-40 -6t-43.5 -2t-36.5 4q-32 9 -54.5 34t-36.5 57q-15 35 -19 75t0.5 80.5t15.5 79t26 70.5q19 41 42 81t59 71q52 45 124 57.5t148 -17.5q29 -12 56 -36.5t48 -55.5t35 -63.5t19 -59.5z" />
    <glyph glyph-name="P" unicode="P" horiz-adv-x="492" 
d="M175 690q-4 -30 -7 -66t-4.5 -72t-1.5 -71t2 -64q35 9 72.5 28.5t72.5 47.5q13 10 31 25.5t34 32.5t26 35t7 34q-3 18 -30 34.5t-63.5 27t-75 13.5t-63.5 -5zM152 290q-2 -20 -4 -51t-3 -67.5t-1 -75t2 -73.5q2 -36 10.5 -72t13.5 -66.5t1.5 -52.5t-25.5 -29
q-14 -5 -28 -1.5t-26 11.5t-20.5 18t-11.5 18q-4 11 -1.5 29.5t1.5 40.5l-4 79.5t-3.5 82.5t-1.5 79.5t3 71.5q-2 10 -9 14.5t-15.5 7.5t-16.5 6.5t-11 11.5q-4 25 1.5 40.5t15 27t21.5 20.5t20 22q-4 49 1.5 99.5l10.5 98.5t3 92t-21 81q4 4 7.5 12.5t9 16.5t12.5 13.5
t17 4.5q18 -3 46 -4t59.5 -2.5t63.5 -4t57 -7.5q44 -8 76 -25l52 -27q5 -5 8 -11q2 -9 6 -13q2 -4 4 -7.5t5 -6.5q10 -20 14 -53t-5 -65q-5 -17 -11 -27.5t-12 -18.5t-12 -14l-12 -12l-2 -2l-6 -9l-16 -26.5t-19 -24.5q-25 -24 -56.5 -42t-64.5 -34.5l-65 -34t-58 -39.5z
" />
    <glyph glyph-name="Q" unicode="Q" horiz-adv-x="548" 
d="M161 1q21 -11 46.5 -11t50 7.5t47 21t37.5 29.5q-5 12 -9 24t-9 23q-8 20 -10 39.5t-8 31.5q-5 10 -14 20t-18.5 19.5t-17.5 19t-9 19.5q-3 18 6 35t25 30t35.5 20t39.5 5q16 -2 22.5 -10t8 -19t1.5 -22.5t4 -19.5q1 -7 6 -23t11 -33.5l11 -33t6 -21.5q13 48 19.5 114
t6 134.5t-7.5 132.5t-22 108q-20 33 -42.5 39.5t-44 -2.5t-42 -28t-36.5 -38l-33 -37.5t-24 -25.5v-1q-9 -6 -14.5 -16.5t-8.5 -23l-6 -26t-7 -25.5q-8 -23 -23.5 -46t-22.5 -47q-11 -42 -16 -98t-0.5 -110t19.5 -97t43 -58zM546 -111q2 -12 -8.5 -29t-25.5 -32t-31 -23.5
t-26 -2.5q-23 14 -30.5 32.5t-11 38t-8.5 39t-23 36.5q-20 -11 -39 -24.5t-41 -24.5t-49.5 -16.5t-64.5 -0.5q-72 10 -113.5 57.5t-59 116t-15 150t18.5 160.5t42 147t54 109q0 -1 -2 -1q29 46 66.5 88t75.5 71q19 8 37 14t41 6q39 0 72 -14t59.5 -38t45.5 -56.5t28 -69.5
q7 -26 9 -70t0.5 -97.5t-6.5 -112.5t-13 -114q-1 -5 -2 -11l-2 -12v-1q-4 -22 -6 -37t-3 -26l-3 -15q-6 -16 -12 -26.5t-12 -18.5t-10.5 -17t-6.5 -22q9 -29 20.5 -49.5t22.5 -37.5t20 -32.5t12 -33.5z" />
    <glyph glyph-name="R" unicode="R" horiz-adv-x="561" 
d="M214 463l97 -160.5t102 -156.5q5 -6 9 -15l10 -23q8 -8 18 -20t10 -23q1 -17 9 -25t17 -14t17 -12.5t10 -19.5q1 -11 -4.5 -22t-14 -20.5t-19 -16t-19.5 -7.5q-16 -2 -29.5 5t-24.5 19.5t-18 28t-9 32.5q-2 10 -10 21t-14 22q-5 8 -15 20.5t-13 17.5q-13 38 -34.5 71.5
l-41.5 65.5l-40.5 63t-44.5 60q-7 -8 -9.5 -17t-3 -18.5t-0.5 -20t-1 -19.5q-13 -105 -23 -219t-11 -237q-8 -13 -24 -18.5t-33.5 -4t-33.5 8.5t-22 19q-3 25 6 36.5t17 25.5q13 215 32.5 420.5t57.5 394.5q-9 14 -11 29t2 28t13.5 23t24.5 15q16 -2 32 -8t32.5 -13.5
t33.5 -14.5t35 -11l92 -23.5t88 -29.5q18 -7 35.5 -15t32 -17t24.5 -19.5t12 -23.5q3 -19 -2.5 -35t-17 -29t-26.5 -22.5t-30 -13.5q-16 -5 -35.5 -7.5l-39.5 -5l-41 -5t-40 -6.5q-35 -8 -64 -18t-50 -20zM204 677q-7 -24 -14.5 -57.5t0.5 -61.5q24 1 47 5.5t45 10.5l43 12
t41 10q7 1 15.5 0.5t17 0.5t15 4.5t9.5 13.5l-107.5 39t-111.5 23z" />
    <glyph glyph-name="S" unicode="S" horiz-adv-x="607" 
d="M598 303q-3 -12 -3 -35q-1 -2 -1 -7q-5 -18 -11.5 -35.5l-13.5 -35.5t-12 -36t-5 -37q-20 -30 -39.5 -65.5t-41.5 -70.5t-46 -66.5t-53 -54.5q-13 -11 -30.5 -21.5t-37.5 -19.5t-41.5 -14t-40.5 -5q-41 1 -73 20t-54 51t-34 72.5t-14 84.5t6 87t26 80q13 28 38.5 59.5
t56 59.5t62.5 49.5t58 29.5q28 8 55 6.5t53 -6.5q16 -12 25.5 -34.5t12.5 -49t0.5 -55t-10.5 -53.5t-21.5 -43t-30.5 -23q-14 -4 -30 -3t-29.5 6.5t-23.5 15.5t-13 23q-4 23 3.5 34.5t19 20t23 18t14.5 29.5q-25 13 -56.5 4t-61 -30.5t-51.5 -50.5t-28 -55q-11 -50 -8 -95
t19.5 -78.5t46.5 -50.5t73 -9q29 5 53 23.5t43.5 44.5t35.5 55.5l30 55.5q14 27 29.5 64.5t26.5 77.5t15 79.5t-5.5 71t-35 51.5t-72.5 22q-31 1 -61 -8t-60.5 -21l-61 -24t-62 -17.5t-64.5 -1.5t-68 24q-17 28 -18.5 56t6 54t22.5 50t32 43q24 28 62 58.5t76 55.5
q20 13 43.5 26.5t47 24t46.5 16.5t42 5q18 -1 39.5 -11.5t39.5 -26.5t30 -34.5t11 -35.5q-1 -10 -6 -19.5t-12.5 -17t-15.5 -12t-14 -5.5q-16 -2 -28 6.5t-23 20t-23 21.5t-28 12q-19 2 -41 -5.5t-43.5 -19t-40 -25l-30.5 -22.5q-37 -27 -60 -53t-42 -67q27 -18 55 -17.5
t57 9.5t57.5 22.5t57.5 21.5q42 12 87 13t84.5 -11t69.5 -39t41 -70q2 -8 3 -13q1 -4 1.5 -7.5t0.5 -8.5q2 -14 2 -32t-4 -43q-2 -7 -3 -13.5t-2 -14.5z" />
    <glyph glyph-name="T" unicode="T" horiz-adv-x="719" 
d="M702 749q19 -18 17 -37t-7 -42q-5 -7 -5 -8q0 -4 -1 -10t-3.5 -10.5t-6.5 -6.5t-10 1q-4 2 -12 2q-19 11 -42.5 12t-50.5 -1.5t-55.5 -3.5t-57.5 6q-8 -43 -10.5 -93t-4 -105t-2.5 -112t-4 -114q-2 -27 -5.5 -63.5t-6 -75.5t-3 -78t3.5 -71q2 -16 7 -32t9 -31.5t4 -29.5
t-9 -26q-11 -15 -29.5 -18t-36.5 2t-32 15.5t-17 22.5q-2 9 1 17.5t7 17.5t8.5 17.5t5.5 17.5q3 24 2 53t-3 61.5l-4 66.5t0 69q2 54 5.5 116l7 125t7.5 125t7 118q-32 12 -69 13.5t-74.5 1.5t-74.5 1t-70 11v-1q-10 3 -22.5 7.5t-24 10.5t-21 11.5t-14.5 10.5t-6 21t3 31.5
t13.5 27t25.5 7.5q12 -2 30 -7l39 -11q16 -7 33.5 -10.5t37.5 -5.5l23 -3.5t16 0.5q11 -1 22 -1t24 -1l114 -6t114.5 -5.5t109 -2.5t97.5 3z" />
    <glyph glyph-name="U" unicode="U" horiz-adv-x="519" 
d="M513 430q3 -27 4.5 -55.5t1.5 -52.5v-40v-19v-9q-9 -78 -29.5 -155.5t-52.5 -142.5q-15 -31 -31.5 -59t-38.5 -49t-50.5 -34t-68.5 -14q-55 -2 -94 20.5t-66 60.5t-43.5 88.5t-25.5 105.5q-5 31 -9 71t-6 83.5t-3 87.5t-1 83t0.5 70t2.5 49v1q5 34 6.5 74t7.5 75.5t21 61
t47 30.5q21 3 40 -2.5t34 -16t24.5 -24t10.5 -25.5q0 -12 -8 -21t-18.5 -18t-20.5 -19t-14 -23q-5 -16 -2 -40t2 -48q-2 -46 -4.5 -97t-3.5 -103.5t0.5 -105t7.5 -100.5q4 -32 11 -70t18.5 -70.5t29 -54t42.5 -21.5q17 0 35 17t34.5 43.5t31.5 59.5t26.5 65.5t19 62
t9.5 49.5q12 117 3 229.5t-23 217.5l-16.5 29.5l-16.5 29.5t-14 32t-8 38q18 15 42 21t48 3.5t44.5 -11.5t32.5 -23.5t12.5 -34.5t-16.5 -43q7 -26 12 -53t7 -57v-17q0 -4 2 -20l4.5 -36.5l5 -41t4.5 -32.5z" />
    <glyph glyph-name="V" unicode="V" horiz-adv-x="438" 
d="M361 800q10 1 23 -4.5t24.5 -14.5t20 -21.5t9.5 -24.5q1 -11 -2 -17.5t-7.5 -12.5t-10.5 -12.5t-10 -16.5q-6 -15 -11.5 -35.5t-11.5 -40.5q-5 -17 -8 -29t-5.5 -24t-4.5 -26t-6 -33q-2 -13 -11 -24.5t-12 -22.5q-3 -9 -0.5 -20.5t0.5 -20.5q-7 -35 -21.5 -70.5
t-25.5 -70.5q-17 -55 -28 -105t-25 -101q-3 -9 -3 -13.5t-0.5 -9.5t-2 -14t-6.5 -28q-5 -18 -15 -38t-9 -33q3 -30 -7.5 -56.5t-29 -42.5t-43 -18t-49.5 17q-6 9 -5.5 19t2.5 20t2.5 20t-5.5 18q-15 25 -6 70l-3.5 34.5l-2.5 24.5l-4 70.5t-6 68.5v3q-1 14 -2 43t-2 64
t-1.5 72.5t-2 70t-4 55.5t-5.5 30q-10 17 -19 36t-9 39q8 26 21 47.5t34 24.5q28 4 43 -9t22 -35.5t8.5 -51.5t3.5 -57q3 -69 9.5 -137t13.5 -122q13 7 19.5 19.5t10 27t5.5 30t6 29.5q5 13 9.5 26t8.5 27q10 36 22 74l24 76.5l23 75t19 68.5q3 12 5.5 30.5t7.5 35.5
t15.5 30.5t30.5 15.5z" />
    <glyph glyph-name="W" unicode="W" horiz-adv-x="687" 
d="M617 800q9 -3 21 -10t23 -17t18.5 -22.5t7.5 -26.5q0 -15 -4.5 -23t-11 -14t-14 -11.5t-13.5 -15.5q-11 -19 -17.5 -50.5t-15.5 -68.5q-16 -67 -31.5 -143t-27.5 -160q-7 -46 -15.5 -90l-16 -85.5t-12.5 -78.5t-5 -70q0 -17 4 -29.5t2 -24.5q-2 -7 -6 -16.5t-11 -18.5
t-16.5 -16.5t-20.5 -8.5q-12 -2 -24 3t-22.5 11.5t-18 13.5t-11.5 10q3 57 -1.5 106.5t-13.5 95.5t-20.5 89l-23.5 87q-5 19 -14 36t-13 35q-3 10 -3 21t-0.5 21.5t-4.5 20.5t-14 18q-10 -27 -14.5 -57t-7 -60.5t-4.5 -62.5t-7 -63q-3 -21 -6.5 -49t-5.5 -58t-2 -61t4 -59
q-8 -17 -23.5 -25.5t-32.5 -10t-33 5t-25 19.5q-6 8 -7 19t-0.5 23.5t2 26.5t0.5 28q-2 23 -7 50.5t-11 57t-11.5 60t-8.5 59.5q-7 70 -17 136t-20 125l-11 110q-1 11 -5.5 22.5l-9 23t-7 24t-0.5 24.5t12 25.5t24.5 23.5t30.5 15t30 1q13 -5 18.5 -15.5t6 -25t-1 -30.5
t-1.5 -32q-2 -39 2 -82t9.5 -85.5t11.5 -81.5t9 -70q17 11 23 38t9 54q4 25 8 56t3 57q0 16 -6.5 33.5t-4.5 31.5q4 25 22.5 39.5t41 16.5t45.5 -9t37 -36q1 -37 6.5 -70.5t13.5 -65t17 -63.5t17 -66q11 -40 20.5 -86.5t28.5 -91.5q15 29 21 63t11 67q12 64 22 131.5
t27 132.5q6 24 14 46t14 45t8 48t-4 56q16 16 33.5 29t37.5 25z" />
    <glyph glyph-name="X" unicode="X" horiz-adv-x="502" 
d="M465 792q21 -12 29 -27.5t8 -30t-5.5 -25.5t-11.5 -12l-2 -2q-17 -13 -30 -32t-25 -39q-36 -60 -71.5 -126.5l-71.5 -134.5l25 -78.5l26.5 -80t28 -76.5t29.5 -68l14 -32t22 -48t23.5 -46.5t17.5 -27.5q3 -3 6 -16t0.5 -29.5t-12.5 -32.5t-32 -24t-39 -3t-27.5 15
t-15 21.5t-1.5 16.5v3q1 10 -3 31.5t-11 47t-15.5 53.5l-15.5 52l-36 106.5l-39 111.5l-54 -96q-4 -10 -5 -15t-2 -9t-4.5 -8t-13.5 -12q-7 -11 -9.5 -18t-3.5 -12t-3.5 -9.5t-9.5 -9.5q-7 -22 -17 -42.5t-24 -32.5t-32.5 -11t-42.5 23q-14 28 -6.5 55.5t33.5 56.5
q5 21 9 26.5t22 8.5q12 13 28 40.5l33.5 59l33.5 62.5t28 52q0 1 1 1l-29.5 85t-26.5 84q-5 10 -8.5 14t-5.5 7t-2.5 8.5t-0.5 18.5q-3 12 -6.5 18.5t-6.5 11t-4.5 9t-0.5 13.5q-11 20 -20 41.5t-8 40t14 31t45 15.5q62 -19 65 -95q12 -18 21 -46t13 -54l8.5 -47t11.5 -50
l57.5 104.5t45.5 98.5q8 18 10 37.5t2 36.5q0 4 8 15t21.5 20.5t31.5 13t39 -7.5z" />
    <glyph glyph-name="Y" unicode="Y" horiz-adv-x="418" 
d="M382 792q20 -11 27.5 -26.5t7.5 -29.5t-5 -24.5t-10 -12.5q-2 0 -3 -1q-17 -12 -29.5 -31t-23.5 -38q-35 -58 -69.5 -123l-69.5 -131q6 -30 4.5 -72.5t-4.5 -88.5t-5.5 -90t0.5 -77q1 -9 3 -33.5l4 -51.5t5 -51t7 -31q2 -3 0 -16.5t-9.5 -27.5t-21.5 -25t-37 -11t-37 10
t-20.5 22.5t-6.5 24.5t4 16l1 2q4 9 7.5 30t6 47t4 54t2.5 52q1 27 5.5 73t7 95t0.5 92t-12 63v1l-28 82.5t-26 80.5q-5 9 -8.5 13t-5.5 7.5t-2.5 9t0.5 17.5q-3 12 -6.5 18t-6.5 10.5t-4.5 9t-0.5 13.5q-11 19 -19.5 40t-7.5 39t13.5 30t43.5 15q29 -8 45.5 -31t17.5 -61
q12 -18 21 -45t13 -53q3 -21 7.5 -45t11.5 -49l56 101.5t44 95.5q8 18 10 36.5t2 35.5q0 4 7.5 15t20.5 20t31 12.5t38 -7.5z" />
    <glyph glyph-name="Z" unicode="Z" horiz-adv-x="821" 
d="M496 213q32 -6 68.5 -22.5t73 -39.5t70.5 -49.5t59.5 -53t40 -50.5t13.5 -42q-3 -28 -16.5 -49.5t-34 -38t-45.5 -28.5t-50 -20t-48.5 -12.5t-40.5 -5.5q-52 -5 -107.5 -1.5t-111.5 12t-112.5 20.5t-109.5 25l-35 9t-32 -1q-4 -1 -12 2.5t-16 9.5l-15.5 12t-10.5 11
q-23 35 -24 76t17 90q13 36 35.5 70.5t46 66.5l45 60.5t34.5 52.5q17 31 38.5 58.5l38.5 50.5l32 45t41 48q27 27 61.5 49.5t69.5 42l66.5 36.5t52.5 33q-16 11 -34 16t-37 6.5t-37.5 1.5t-36.5 1q-38 2 -77 2.5t-77 -13.5l-25.5 -20l-24.5 -20q-23 -1 -40 10t-25 27t-6 35
t17 34q9 9 19 12.5t20.5 5.5t21 5.5t21.5 11.5q41 3 89 4.5t98 -0.5t100 -8.5t95 -18.5l30.5 -9t34.5 -13t32 -19.5t23 -26.5q12 -23 9.5 -39.5t-15 -28.5t-32.5 -20.5t-42.5 -15l-44.5 -12.5t-39 -13q-32 -14 -59.5 -29t-53 -33t-50.5 -39t-52 -48l-14 -19.5t-13 -15.5
q-32 -38 -58 -82.5t-58 -80.5q-24 -26 -42.5 -51t-34.5 -51.5t-30 -56t-28 -65.5q30 -26 69.5 -42.5t80 -26.5t79.5 -15.5l69 -9.5q28 -3 53 -5t48 -2t46 1.5t48 4.5l35 4t35 6.5t31.5 12.5t25.5 22q0 12 -8.5 24t-22.5 23t-31.5 21.5l-35.5 20.5l-65 36t-62.5 29t-54 12
t-40.5 -15q2 -12 7 -25t8.5 -26.5t2 -27.5t-13.5 -27q-5 -6 -10.5 -8.5t-11.5 -3.5t-12.5 -2.5t-14.5 -6.5q-24 15 -46.5 32.5t-37 37t-19.5 41t5 43.5q8 17 26 27t37 19q40 20 83 32.5t91 2.5z" />
    <glyph glyph-name="a" unicode="a" horiz-adv-x="518" 
d="M22 231q7 26 22 46.5t36 37.5q14 57 24 117l20 120t22.5 118.5t30.5 113.5q37 11 69.5 14.5t58.5 -4.5q21 -85 40 -178l37 -188.5l36 -190t39 -181.5q3 -12 4 -26.5t4.5 -27.5t11 -22t23.5 -12q14 6 17.5 -11t-3.5 -39.5t-24.5 -42.5t-45.5 -22q-26 5 -43 27t-29 54.5
t-19.5 73l-14.5 82l-14.5 82.5t-18.5 74q-9 3 -25.5 0t-35 -9l-35.5 -12t-27 -7q-20 -30 -27 -69.5l-14 -78.5q-4 -19 -5 -37.5t-5 -40.5q-3 -18 -10 -37t-7 -36q0 -13 3 -26t5 -26t0 -25.5t-12 -23.5q-23 -15 -51 -17.5t-46 9.5q-11 28 -12 56.5t3 56.5t11 55t12 54
q7 39 15 76t12 75q-2 10 -6 15.5t-9 10t-9.5 9t-7.5 13.5zM274 362q-2 47 -10 96t-20 102q-10 -9 -13.5 -21t-5 -25.5t-1.5 -27t-2 -26.5q-5 -26 -12.5 -52.5t-16.5 -49.5q4 -9 5 -17q6 -2 17 -1t22.5 4t21.5 8t15 10z" />
    <glyph glyph-name="b" unicode="b" horiz-adv-x="476" 
d="M341 37q12 24 27.5 47t15.5 44q0 36 -28.5 63.5t-70.5 44t-89 21t-84 -5.5q2 -38 9 -77t9 -77q3 -14 5.5 -29t4.5 -30q2 -10 2 -19.5v-19.5q0 -11 2.5 -20.5t3.5 -20.5q2 -14 1.5 -27.5t3.5 -27.5q1 -4 2 -11.5t2.5 -15t4 -14t6.5 -8.5q6 -2 14 3l13 8l58.5 36t46.5 50
q1 1 3 5q9 21 18.5 41zM107 720q-9 -34 -11.5 -69t-2 -71t2 -74.5t0.5 -78.5q22 5 41 21t35 37t30 44t27 42q8 12 16.5 22.5t15.5 21t10 21t1 20.5q-3 13 -20 26t-41.5 23t-52 14.5t-51.5 0.5zM453 203q13 -16 20 -37t2 -43q-11 -50 -30.5 -92t-44.5 -79q-24 -35 -54 -69
t-69 -54v2q-28 -20 -62 -25q-15 -2 -26.5 -4.5t-26.5 -0.5q-12 2 -24.5 2t-25.5 3l-21.5 5.5t-15.5 13.5q-2 6 -1 15t1 16q-1 8 -1 17t-2 17q-5 28 -8.5 56.5t-8.5 56.5q-2 12 -4.5 23t-3.5 23q-12 27 -14 60t-3.5 66t-6.5 64t-23 54q11 35 12.5 76.5t-1 86t-6 90t-3.5 89
t6 83t24 71.5q39 8 78 10.5t75 -2t68 -17t56 -33.5q9 -8 19 -20.5t19 -26t15 -27t6 -22.5q1 -23 -9.5 -46t-25.5 -44.5t-32 -40.5t-29 -35l-62 -75t-55 -69q98 -11 174 -44t124 -94z" />
    <glyph glyph-name="c" unicode="c" horiz-adv-x="394" 
d="M254 272q10 23 33 33t46.5 7.5t41.5 -17t19 -40.5q0 -11 -5 -21t-12.5 -19l-14.5 -17.5t-11 -17.5q-7 -15 -11 -34.5t-7.5 -40.5t-6.5 -43.5t-8 -43.5q-8 -38 -19.5 -78t-28.5 -67q-11 -18 -27.5 -34.5t-37.5 -27t-46.5 -11.5t-55.5 13q-11 5 -26.5 21t-22.5 28
q-15 24 -25.5 56.5t-17 67.5t-9 72t-2.5 70q0 42 2.5 85.5t6 82.5t7.5 70.5t7 49.5q11 39 20.5 84t20 88.5t25 83.5t35.5 69q6 9 16.5 19t22.5 19t24 15t23 6q7 0 17 -4t20.5 -10.5t19.5 -14t14 -14.5q5 -8 5 -21t5 -28q4 -12 14.5 -35l22 -50.5t20 -57.5t10.5 -56v-2
q-2 -5 -7 -11.5t-14 -11t-22.5 -5.5t-32.5 6t-29.5 17t-15.5 20.5t-6 20t1 14.5v2q1 3 3 7q-8 12 -9.5 29.5l-3 34.5t-5.5 31t-17 20q-25 -34 -38.5 -78.5t-24.5 -93.5q-3 -14 -9.5 -42l-13.5 -59.5t-12.5 -60t-7.5 -41.5q-1 -2 -0.5 -3t0.5 -3q-3 -20 -4.5 -41t-3.5 -41
q-2 -45 -1 -93t7.5 -92t19.5 -80.5t34 -58.5q27 12 43.5 41.5t27 66t17 76.5t14.5 75q3 13 7 26.5t6 28.5t1 31t-8 33z" />
    <glyph glyph-name="d" unicode="d" horiz-adv-x="553" 
d="M100 -195q-16 14 -22 31.5t-6.5 37t1.5 40t2 41.5q0 57 -7 123.5t-12 138.5q-5 75 -5 148t-3.5 141.5t-13.5 129.5t-34 112q20 25 48 36.5t59 14.5t63 0t61 -7q43 -6 87 -24t82 -44t69 -58.5t49 -67.5q3 -6 8 -18.5l10 -25.5t8.5 -25t4.5 -18q6 -42 0.5 -83t-18 -81
t-30 -79l-33.5 -76q-25 -55 -55.5 -110.5t-62.5 -95.5q-14 -17 -36 -35t-39 -40q-18 -22 -33 -45t-34 -39.5t-44 -24t-64 2.5zM175 -14q5 0 6.5 -2.5t5.5 -3.5q1 -3 1.5 -5t5.5 -1q29 33 66.5 80.5t72.5 104t63.5 118t40.5 121.5q5 25 7 49t-1 45q-6 44 -32.5 82t-66.5 63.5
t-90 36t-104 -0.5q-3 -83 0 -168t8 -171.5l10 -174t7 -173.5z" />
    <glyph glyph-name="e" unicode="e" horiz-adv-x="660" 
d="M84 29l-20 86t-12 102q0 12 2 23l4 22.5t2.5 22t-2.5 21.5q-3 12 -12 21t-18.5 17t-17.5 16t-9 17q-3 16 3.5 30.5t18 26t24.5 18t24 8.5q16 61 38 119t54 104t76.5 77t106.5 38q61 7 104.5 -17.5t75 -67t53.5 -95.5l42 -101q10 -26 22 -53.5t15.5 -53t-5 -49
t-39.5 -42.5l-105.5 6.5l-109 7t-107.5 5t-100 0.5q-8 -15 -11.5 -35t-4.5 -43t0.5 -47.5t3.5 -46.5q1 -22 5.5 -46.5t11.5 -49t15.5 -48t18.5 -42.5q7 -14 17.5 -30t22 -29.5t23 -23.5t20.5 -12q28 -6 53.5 6t48 35t40.5 53t30 59q8 18 16.5 45t9.5 57q13 13 34 25t41 15
t35 -8.5t18 -44.5q1 -9 -2.5 -18t-9.5 -19l-13 -21t-14 -25q-11 -25 -17.5 -53.5t-20.5 -48.5q-17 -26 -47.5 -53t-68 -48t-79 -33t-80.5 -7q-35 4 -61 19.5t-47.5 38.5t-39.5 54l-37 67q-2 4 -5 11q-2 6 -5.5 15zM359 703q-40 5 -66.5 -17t-43.5 -58.5t-28.5 -80
l-21.5 -81.5q12 -9 26 -11.5t29.5 -2.5t32 1t33.5 0q27 -1 55 -5t54 -6.5t49 -2t40 7.5q-9 30 -23 72.5t-34 81.5t-45.5 68t-56.5 34z" />
    <glyph glyph-name="f" unicode="f" horiz-adv-x="541" 
d="M33 790q59 -2 122.5 -4.5t126.5 -3t123.5 3t114.5 14.5q13 -12 17.5 -27t2.5 -31.5t-9.5 -32.5t-17.5 -29q-28 6 -56 6.5t-56.5 -1.5t-57.5 -5t-59 -3q-20 0 -39.5 2t-38.5 3t-37 -1.5t-34 -11.5q-1 -9 -2 -27t-1 -38t0.5 -37t2.5 -23q28 -2 66.5 -2.5t79 -0.5t78.5 -0.5
t67 -3.5q10 -13 10 -29t-5.5 -31t-15 -27.5t-18.5 -18.5q-65 12 -132.5 10t-130.5 -6q-5 -64 -9 -144.5t-7 -164.5t-3 -164t4 -143q-9 -13 -26 -17t-35 -1t-34 11t-24 19q11 69 18 154.5t9.5 175t1 174.5t-5.5 153q7 10 10.5 34.5t5 53t2 55.5t2.5 44q-4 9 -10.5 14.5
l-13 11t-12 11.5t-6.5 17q-1 9 2.5 16.5t8.5 14.5l10.5 14.5t10.5 15.5z" />
    <glyph glyph-name="g" unicode="g" horiz-adv-x="649" 
d="M226 -30q24 42 36.5 97.5t16.5 115.5t0 121.5t-14 116.5q-19 2 -38.5 -2t-37 -6.5t-31.5 0.5t-23 19q-2 17 6 29.5t21 20.5t29.5 13t30.5 7q68 11 137.5 18.5t149.5 18.5q16 2 40 3.5t46 -1.5t38 -13t16 -31q0 -19 -10.5 -26.5t-26.5 -9t-35 0.5t-36 2q-51 1 -89 -5
t-73 -14q4 -90 15.5 -185t25.5 -191q4 -31 12.5 -63t15.5 -65t9.5 -66.5t-3.5 -66.5q-8 -3 -22 -5.5t-29 -2.5t-27.5 2t-18.5 8q-8 12 -10 30.5t-1.5 39t0.5 41t-5 35.5q-18 -14 -27 -30.5t-17.5 -30t-21 -22.5t-37.5 -9q-27 0 -51.5 14.5t-46 36.5t-38 47.5t-26.5 48.5
q-15 33 -29.5 73.5t-25 86.5t-16.5 95.5t-5 100.5q1 37 8 73t18.5 69t27 61t33.5 51q21 27 51.5 57t68 56.5t79.5 44.5t87 21q25 1 49 -2t43.5 -9.5t31.5 -16t12 -21.5q0 -23 -17 -33t-38.5 -13.5t-41.5 -2.5t-26 1q-48 0 -87 -23t-73 -50q-24 -19 -47 -42.5t-41 -51.5
t-29.5 -61t-12.5 -71q-1 -28 1 -57t6 -60q6 -52 17.5 -95.5t27.5 -82t35.5 -72.5t42.5 -67z" />
    <glyph glyph-name="h" unicode="h" horiz-adv-x="435" 
d="M409 34q1 -7 1.5 -13t0.5 -12q2 -26 7.5 -53.5t10 -52.5t6 -45t-3.5 -31t-16.5 -18t-25 -8.5t-28 3.5t-25.5 18q-8 112 -15.5 230t-10.5 244q-15 18 -39 27t-51 9.5t-54 -6.5t-48 -20q-3 -41 -7.5 -85t-6.5 -89t-0.5 -89t9.5 -85q-4 -21 -19.5 -31.5t-34 -10.5t-35 10.5
t-22.5 31.5q-4 15 -2 34.5t6.5 42.5l9.5 47t7 48q3 37 3 74.5v72t1 64t6 51.5q-1 16 -5 26.5t0 29.5q6 29 10 64.5t5.5 72t-0.5 70.5t-10 60q4 19 19.5 30.5t34.5 13.5t36.5 -6t25.5 -27l-19.5 -157t-6.5 -157q17 2 41 3.5t48.5 5t46.5 9.5t36 18q-2 18 -1 46t1.5 59.5
t-0.5 64.5t-5 62q-2 14 -9 26.5t-6 24.5q1 19 10.5 35t24 25t32 8.5t34.5 -13.5q10 -20 11.5 -48.5t0.5 -60.5t-3 -65.5t1 -63.5v-8q1 -18 3 -50t4 -71t3.5 -80.5t3 -77t2.5 -61.5t1 -33v-56.5t5 -71.5q0 -2 0.5 -3t0.5 -2z" />
    <glyph glyph-name="i" unicode="i" horiz-adv-x="126" 
d="M126 781q-4 -51 -6 -104t-4 -114q-1 -28 -5.5 -56t-4.5 -54q-1 -20 3 -41.5t3 -41.5q-2 -30 -3 -57.5l-2 -56.5q-1 -22 -6 -43t-7 -43q-5 -65 -3.5 -135.5t5.5 -139.5q1 -12 3.5 -24t3.5 -24t-1.5 -23.5t-12.5 -23.5q-9 2 -21.5 3t-25 2.5t-23 5t-14.5 10.5
q-7 118 -4.5 251.5t13.5 277.5q4 52 3 106.5t2 111.5q2 25 6.5 51.5t4.5 53.5q0 15 -2 31.5t-3.5 32t-1 28.5t6.5 21q6 10 20 12.5t29 0.5t28.5 -7t18.5 -11z" />
    <glyph glyph-name="j" unicode="j" horiz-adv-x="475" 
d="M474 389q0 -24 -1 -40.5t-1.5 -31.5t-1.5 -31.5t-2 -39.5q-2 -35 -3 -49q-1 -10 -2 -15q-8 -29 -12.5 -63.5t-5.5 -66.5q-16 -25 -31.5 -54l-32 -58t-35.5 -55t-43 -45q-11 -9 -29.5 -16.5t-39.5 -12.5t-42 -8t-37 -3q-52 1 -87 38t-52.5 90.5t-15.5 113.5t24 106
q11 23 29.5 46.5t40.5 44.5t45.5 36.5t45.5 21.5q1 0 7.5 1t14.5 2.5t15 2.5t9 1q18 2 37 -3.5t36 -8.5q20 -15 28 -48t4.5 -67.5t-17 -63t-35.5 -35.5q-12 -3 -25 -2.5t-24.5 5t-19.5 13t-10 19.5q-4 19 2.5 28.5t16 16t19 14.5t12.5 25q-21 11 -47.5 3.5t-51 -25.5
t-43 -41.5t-22.5 -45.5q-9 -41 -6.5 -79t16.5 -65.5t38.5 -41.5t60.5 -8q24 4 43.5 19.5t36 37t30 46t24.5 46.5q10 19 20.5 43.5t19 51.5t14 55t5.5 54h1q1 25 1.5 44t1.5 35.5t1.5 33.5t0.5 40q0 52 1.5 95.5t-1.5 85.5l-2 37.5t-3 36.5q-1 17 -4.5 35.5t-5 37t2 36
t17.5 33.5q6 3 15 3t18 -2t16 -6.5t9 -11.5q6 -19 8 -55t3 -72q1 -32 -1 -65t-2 -68q1 -32 3 -65t1 -66z" />
    <glyph glyph-name="k" unicode="k" horiz-adv-x="530" 
d="M530 -67q3 -20 -7 -37.5t-28 -23.5q-19 -6 -33 1t-26 21.5t-22.5 32.5t-22.5 35l-62 84l-67 85l-67 80.5l-60 71.5l2 -20t1 -20v-46t-0.5 -68t0 -79.5t2.5 -79.5t6 -69.5t12 -48.5q-6 -8 -9.5 -16l-7 -15.5t-9 -13t-16.5 -7.5q-5 -1 -16 3t-23 11.5t-21 17.5t-10 22
q-2 14 0.5 28t2.5 32q0 13 -0.5 41t-2 64.5t-3 77.5t-2.5 78.5t-2 68t-1 47.5q-1 19 -0.5 37t0.5 37q-13 8 -23.5 20t-8.5 28q1 10 10 20t23 19q1 57 -3 121q-2 25 -3.5 48.5t-4.5 44.5t-9.5 39.5t-18.5 34.5q4 17 10.5 33t19.5 27q19 -1 37.5 -1.5t36.5 -2.5
q14 -2 20.5 -12t8 -24.5t-0.5 -31t-5 -30.5q1 -42 3 -80q2 -32 3.5 -66t3.5 -54q29 17 61.5 32t61.5 32q10 5 17 11t13 12q22 19 32 43q0 1 -1 1q5 9 11 17t15 15q26 18 49.5 9.5t32.5 -25.5q4 -9 5 -20t-1.5 -21.5t-6.5 -18t-8 -8.5q-7 -2 -13.5 -8t-23.5 -19v1
q-37 -30 -79 -56.5l-84 -53.5q-26 -13 -39.5 -22t-23.5 -22q2 -2 3.5 -2.5t3.5 -2.5q4 -5 12 -13.5l15.5 -16.5t13 -15.5t6.5 -10.5q19 -14 34.5 -33t30 -39l29.5 -40t34 -35q6 -4 9 -13t8 -15q3 -7 13 -22l22.5 -33t26.5 -36l25 -31q11 -14 25.5 -27.5l28 -26.5t23.5 -26
t12 -26z" />
    <glyph glyph-name="l" unicode="l" horiz-adv-x="611" 
d="M406 -157q-39 3 -78.5 0.5t-77.5 -8t-74 -13l-67 -14.5q-4 -2 -7.5 -2t-7.5 -1q-48 -10 -69 -1t-24.5 27t5 40t18.5 37h2q10 16 14 35t6.5 38.5t3.5 39t5 38.5q4 23 9.5 45.5l10.5 45t7.5 46.5t1.5 50l4 11.5l4 10.5q9 17 13 42q7 21 15 62t15.5 85.5t13.5 84l9 58.5v2
q5 17 6 34.5t5 32.5q8 28 18.5 54t10.5 54q20 17 41.5 21.5t40.5 -2t34 -22.5t21 -40q-5 -24 -18 -39.5l-26 -32.5q-34 -171 -61 -348t-61 -349q22 -9 49 -9t55.5 4t58.5 9t60 4q7 0 19 -3.5t25.5 -6.5t26.5 -5t22 0q4 1 8 4h1l34 11t40.5 7t32.5 -14t10 -52
q-3 -35 -11.5 -57.5t-21 -34.5t-27 -14.5t-27.5 3.5q-20 18 -54 24t-64 8z" />
    <glyph glyph-name="m" unicode="m" horiz-adv-x="609" 
d="M12 13q23 76 36.5 159.5t25.5 168t26.5 167.5t39.5 158q0 11 -2 19t-4 15t-3 13t2 14q8 10 23.5 16t33 8t34 -0.5t26.5 -9.5l8.5 -73.5t10 -81l11 -83t12.5 -79.5q15 16 24.5 37t16.5 44.5t12 48t11 47.5q14 48 23.5 94.5t29.5 86.5q10 8 26 12.5t32.5 5.5t31.5 -3
t23 -13q-12 -75 -12 -162.5t11 -171.5q10 -76 17.5 -155t20.5 -174q-3 -16 -1.5 -31.5t4 -31l5 -31.5t1.5 -34t7.5 -42.5l17.5 -48.5t14 -44.5t-3 -30.5q-3 -14 -14.5 -19.5t-26.5 -7t-30.5 0.5t-27.5 4q-12 9 -12 23.5t2 37.5q1 13 0.5 21t-3 18t-7 25.5t-11.5 42.5
q4 26 -2 78.5t-16.5 115t-22.5 127l-21 115.5q-18 -38 -27.5 -82t-16 -90.5t-12 -94t-15.5 -91.5q-13 -8 -27.5 -10t-27.5 0.5t-24 7.5t-18 13q2 40 -3.5 80t-14 80.5l-17.5 82t-15 85.5q-12 -9 -16 -20.5t-5 -25t0 -27.5t-1 -26q-3 -20 -9 -39t-10 -42q-7 -43 -12.5 -81.5
t-13.5 -79.5q-8 -37 -10 -73t5 -80q-8 -9 -22 -13t-29 -5t-29 2.5t-21 9.5q-11 -10 -16 1t-5.5 31.5t3 46t9.5 44.5z" />
    <glyph glyph-name="n" unicode="n" horiz-adv-x="487" 
d="M468 -53q5 -17 12 -30t7 -27q0 -45 -17 -66.5t-40 -23.5t-46.5 13.5t-35.5 44.5q-8 70 -36.5 136t-58.5 125q-27 52 -57.5 100t-50.5 103q-11 -10 -17 -25t-9 -33t-4 -38t-2 -38q-2 -37 -4 -78.5t-2.5 -84.5t1 -85.5t5.5 -81.5q-6 -17 -19 -25.5t-29 -9.5t-32.5 5
t-27.5 18q-8 34 -4.5 76t5.5 84q0 3 0.5 5.5t0.5 4.5q0 40 4.5 87.5t9.5 107.5q2 29 5.5 68.5l7 77.5t7 68.5t4.5 41.5q5 22 5 48t2 50t10.5 42.5t31.5 25.5q18 5 31.5 1.5t24.5 -13.5t20.5 -23.5t18.5 -28.5q5 -64 21 -117t38 -100t46.5 -91.5t46.5 -91.5q10 9 12.5 18.5
t1.5 20t-4 20t-3 18.5q-3 106 -7.5 206.5t-24.5 192.5q-2 8 -8 20.5t-11.5 28t-8 32.5t2.5 34q9 27 31.5 35.5t47 1.5t44.5 -27t23 -49q1 -11 -1.5 -19.5t-6 -17t-7 -18t-4.5 -21.5q-2 -17 4 -30.5t8 -32.5q4 -32 5.5 -69.5t2 -79.5t1.5 -86.5t4 -88.5q3 -42 5 -85l4 -83
t5.5 -76.5t10.5 -66.5z" />
    <glyph glyph-name="o" unicode="o" horiz-adv-x="599" 
d="M407 112q21 9 31.5 29t17 43l13.5 46.5t20 40.5q0 35 8 85.5t11.5 102t-4.5 97.5t-40 71q-42 8 -81 -0.5t-65 -18.5q-23 -8 -36.5 -14.5t-23.5 -14t-17.5 -18.5t-18.5 -29q-18 -29 -23.5 -49t-1.5 -37t15.5 -35.5l28.5 -44.5l40.5 -66l43 -71t42.5 -65.5t40 -51.5z
M152 -98q17 -6 41 -0.5t50.5 18.5t52.5 32t47 40t35 42t16 40q-6 0 -7 5.5t-6 6.5q-29 37 -56 76.5t-52 83.5q-12 21 -23 44.5t-23.5 45.5t-27.5 40.5t-34 28.5l-24 -80t-24.5 -94t-18 -99t-3.5 -96q1 -16 5 -37.5t11 -41.5t17.5 -35.5t23.5 -19.5zM483 4q3 -23 17 -36
l28 -25.5t21.5 -28.5t-2.5 -44q-20 1 -30.5 12t-17.5 25.5l-14.5 29t-20.5 22.5q-24 -7 -41 -19.5t-32 -27.5l-29 -30t-32 -25q-8 -5 -20.5 -6t-23.5 -6q-10 -5 -22.5 -12.5t-27.5 -15t-32.5 -12.5t-38.5 -5q-59 1 -93.5 29.5t-51.5 75t-19 105.5t4.5 119.5t19 117.5
t25.5 100q8 27 17.5 55.5l17.5 53.5t12.5 45t3.5 31q-3 22 -18.5 40.5l-31 36.5t-25.5 36.5t-1 39.5q22 -3 33.5 -16t19.5 -30t15 -34.5t21 -28.5q19 7 32 20.5t23.5 29t19.5 33t20 32.5q21 7 36 26l30 38.5t34 33.5t47 10t40 -24t23 -52q39 1 66 -10t48 -28q2 -4 5 -7l6 -6
q18 -17 27.5 -43.5t14.5 -56t7 -58t5 -49.5t-1 -57t-10 -72.5t-12 -66t-9 -36.5v-2q-11 -24 -16 -51t-16 -55q-6 -16 -15.5 -31.5l-18 -30.5t-14 -30t-3.5 -29z" />
    <glyph glyph-name="p" unicode="p" horiz-adv-x="471" 
d="M96 254q3 -36 4 -69t3 -67.5t5.5 -72t10.5 -81.5q3 -24 9 -50.5t8.5 -50t-2.5 -40.5t-23 -22q-24 -6 -37.5 13.5t-21 50t-10 64.5t-5.5 58q-11 91 -17.5 191t-10 201.5t-6 200t-3.5 185.5q30 12 74 20.5t93 12.5t99 1.5t91.5 -13t71 -30t38.5 -50.5q6 -21 3 -46
t-11.5 -49t-20 -45.5t-23.5 -37.5q-30 -40 -73 -73.5t-88 -65l-87.5 -64t-70.5 -71.5zM82 698q-3 -33 -4 -73.5t0.5 -83t4.5 -84t6 -77.5q31 5 58 23l53 36q33 23 63.5 48t56 54.5t44.5 64t29 77.5q-18 25 -60 38.5t-89.5 15t-92.5 -8t-69 -30.5z" />
    <glyph glyph-name="q" unicode="q" horiz-adv-x="596" 
d="M117 188q3 -28 11.5 -63.5t22 -69t32.5 -61t41.5 -39t49 -3t56.5 47.5q12 16 19 26.5t12 19.5l-10 27q-8 17 -17 33.5l-18 32.5q-5 7 -15 18t-21 24.5t-19.5 30t-8.5 34.5q0 31 20 46.5t47 17t54 -12t39 -41.5q5 -11 5.5 -21t-0.5 -19.5t-1.5 -20t2.5 -22.5l2 -6t2 -5
l2 4q2 9 3.5 23.5l3 29.5t2.5 28.5t2 20.5q7 48 12.5 102.5t1.5 111t-21 110.5t-55 100q-13 4 -30 6t-34 1.5t-31.5 -3.5t-23.5 -9q-2 -1 -3.5 -1.5t-3.5 -2.5q-2 -1 -2.5 -2t-2.5 -3q-23 -19 -36 -51l-19 -34t-19.5 -37.5t-17 -39.5t-10.5 -40l-3 -12.5l-7 -29t-7.5 -33.5
t-3.5 -26q-2 -20 -3 -44.5t-1.5 -49.5t0 -49.5t2.5 -43.5zM588 -85q15 -45 5 -72.5t-32.5 -37t-51.5 -2t-51 32.5q-17 39 -44 75q-2 -2 -5.5 -6t-17.5 -13q-68 -44 -131 -44.5t-114.5 29.5t-87 84t-48.5 120v-1q-5 33 -6.5 75.5t-3.5 105.5q-1 30 1 61.5t5.5 62t8 59
t9.5 53.5q5 14 7 29t6 32q2 14 4.5 23.5t3.5 12.5q4 12 11.5 23.5t14.5 23.5t12.5 23.5t6.5 22.5q13 18 28.5 35t33.5 29q85 42 153 48t118.5 -21t83.5 -86t47 -147q3 -21 3.5 -46.5t-1 -52l-3 -54t-2.5 -53.5q-2 -41 -4 -78t-7 -70.5t-14 -65.5t-25 -63q1 -7 1.5 -13
t0.5 -13l39 -56q2 -4 3.5 -7.5t3.5 -6.5q10 -16 22 -26.5t17 -24.5z" />
    <glyph glyph-name="r" unicode="r" horiz-adv-x="528" 
d="M229 672q-20 -42 -24 -99t-9 -114q30 10 62.5 17t63 16.5t56 23.5t41.5 38q-15 24 -35.5 41.5t-45.5 31t-53 24zM384 133q12 -32 23 -57t20 -43l20 -37q8 -18 21 -36t24.5 -36t20 -35t7.5 -33q-2 -21 -16 -37.5t-35 -18.5t-34.5 9t-23 28.5t-16.5 39t-15 41.5
q-22 52 -49 108l-54.5 110l-54.5 104l-49 91q-11 -13 -16 -29.5t-8 -34.5t-4.5 -37.5t-4.5 -38.5q-5 -25 -11 -49.5t-10.5 -49t-5.5 -51t5 -56.5q-9 -7 -14.5 -15t-10.5 -14.5t-12 -11t-19 -4.5q-5 0 -16 6.5t-21.5 17t-18.5 23.5t-6 25q2 15 7.5 29t9.5 33q9 41 13 89.5
t15 100.5q15 71 32 141t29 155q8 54 13 99.5t-13 84.5q8 17 18.5 32t26.5 24q51 -12 99 -27t90.5 -35t79.5 -46t66 -60q1 1 1 2q14 -17 27 -38.5t14.5 -45t-13.5 -47.5t-55 -45q-45 -23 -93.5 -41l-98.5 -36v-28q18 -19 30.5 -42.5t24 -48l23.5 -49t28 -44.5q6 -6 7 -16
t5 -18l-2 -2v0z" />
    <glyph glyph-name="s" unicode="s" horiz-adv-x="574" 
d="M565 454q2 -5 4.5 -13.5t4 -18t1 -17.5t-3.5 -11q-5 -4 -8.5 -11t-6 -15.5t-4 -17.5t-3.5 -16q-12 -50 -26 -102.5t-31 -103.5t-38 -99t-47 -90q-13 -21 -37 -49.5t-55 -51.5t-67 -34t-72 4q-15 6 -29 29t-25 56t-19 72.5t-11.5 80t-1.5 78.5t10 67q12 45 40.5 76
t63.5 56l32.5 22.5t33.5 10.5q23 -1 38.5 -14.5t26 -34t15.5 -46.5t7 -53q-8 -5 -12 -10t-7 -9.5t-7.5 -8t-11.5 -5.5q-17 -4 -29 1t-22 13t-18.5 18t-18.5 17q-20 -7 -30 -28t-13.5 -50t-3 -64.5t2.5 -70.5q1 -19 2.5 -38.5t5 -36t9.5 -29t16 -17.5q32 7 53.5 33.5
t39.5 54.5q25 39 44.5 76.5t38.5 87.5l22 62t21 73.5t12 78.5t-6 77q-36 4 -67 5t-60.5 -1t-58.5 -7t-61 -14q-25 -7 -56.5 -21.5t-60 -22t-51 -0.5t-29.5 44q-3 16 1.5 32.5t12.5 32.5t17.5 30.5t17.5 25.5q26 35 59 69t69 65t72.5 58l68.5 49q13 0 23 4t19 8.5t18.5 7.5
t21.5 2q20 -3 32.5 -15.5t16 -29t-2.5 -34.5t-24 -31h-60q-37 -12 -66 -35.5l-55 -46.5q-12 -11 -26 -22t-27 -23t-23.5 -26.5t-16.5 -32.5q25 1 58.5 7t70.5 12t75.5 9t74.5 -1q49 -5 83 -23.5t54 -53.5z" />
    <glyph glyph-name="t" unicode="t" horiz-adv-x="650" 
d="M416 245q-1 -34 -3.5 -72t-4.5 -76.5t-2 -77t4 -74.5q2 -17 8 -33t10.5 -31t5.5 -29.5t-5 -28.5q-16 -17 -36.5 -21t-40 1.5t-35.5 19t-23 30.5q9 72 9.5 158t-2.5 177.5l-6 185.5t-1 183q0 21 2.5 50t-1.5 52t-19 34t-49 -2l-122 -6q-19 -1 -38.5 2t-35 12.5t-24.5 27
t-6 44.5q25 22 59 26.5t75 1.5t87.5 -8t96.5 -2q18 1 45 2t56.5 1.5l57.5 1t49 1.5q18 1 38 2t37.5 -1.5t30.5 -11t16 -25.5q5 -32 -15.5 -46t-53.5 -17.5t-71 -1t-68 2.5q-26 -19 -33.5 -50t-7 -68t4 -75t-0.5 -70z" />
    <glyph glyph-name="u" unicode="u" horiz-adv-x="425" 
d="M127 750q-7 -64 -9 -136t1.5 -145t12 -143.5t22.5 -131.5q5 -20 13 -36.5t13 -36.5q6 -24 8 -49t6 -48.5t12.5 -44.5t26.5 -37q22 17 36 53.5t22.5 85t12 105.5t4.5 115.5t0 114.5t-2 103q0 12 4.5 27t2.5 26q-2 14 -8 26l-11.5 23.5t-8.5 23.5t1 26q7 25 28.5 34.5
t44.5 5.5t42.5 -21.5t23.5 -45.5q-12 -41 -16 -98.5t-4.5 -123.5t0 -137.5t-2.5 -138.5t-11 -127t-25 -103q-10 -25 -23 -50t-32 -42t-46 -22.5t-65 8.5q-33 34 -56.5 77t-40.5 93.5t-28.5 106t-20.5 114.5q-16 108 -23 186.5t-11 132.5t-7 86t-10 46q-5 9 -1.5 30.5
t10.5 45.5t15.5 44t13.5 25q17 5 32 2t26.5 -11t19 -18.5t8.5 -19.5z" />
    <glyph glyph-name="v" unicode="v" horiz-adv-x="503" 
d="M433 800q9 -3 21 -10t23 -17t18.5 -22.5t7.5 -26.5q0 -15 -4.5 -23t-11 -14t-14 -11.5t-13.5 -15.5q-11 -19 -17.5 -50.5t-15.5 -68.5q-16 -67 -31.5 -143t-27.5 -160q-7 -46 -15.5 -90l-16 -85.5t-12.5 -78.5t-5 -70q0 -17 4 -29.5t2 -24.5q-2 -7 -6 -16.5t-11 -18.5
t-16.5 -16.5t-20.5 -8.5q-12 -2 -24 3t-22.5 11.5t-18 13.5t-11.5 10q3 57 -1.5 106.5t-13.5 95.5t-20.5 89l-23.5 87q-5 19 -14 36t-13 35q-3 10 -3 21t-0.5 21.5t-4.5 20.5t-14 18q-7 5 -17 28l-21 50l-21 52t-17 35q0 1 -0.5 1.5t-0.5 1.5q-3 14 -7.5 28t-2.5 25
q4 25 22.5 39.5t41 16.5t45.5 -9t37 -36q1 -37 6.5 -70.5t13.5 -65t17 -63.5t17 -66q11 -40 20.5 -86.5t28.5 -91.5q15 29 21 63t11 67q12 64 22 131.5t27 132.5q6 24 14 46t14 45t8 48t-4 56q16 16 33.5 29t37.5 25z" />
    <glyph glyph-name="w" unicode="w" horiz-adv-x="713" 
d="M627 482q4 1 -0.5 -16.5t-12.5 -45l-17.5 -59t-15.5 -58.5l-21.5 -91.5t-12.5 -67.5q-21 -31 -28.5 -75t-12 -91t-10.5 -92.5t-23 -79.5q-12 -6 -23.5 -6t-22 3t-20.5 8t-20 8q-19 42 -32.5 89t-23.5 97.5t-18.5 103l-17.5 103.5q-12 -11 -18.5 -26.5t-9.5 -33.5
t-4.5 -37.5t-4.5 -37.5l-17.5 -109t-13.5 -119q-14 -14 -34.5 -20.5t-51.5 -3.5q-24 57 -31 122t-12 130q-8 112 -23 219.5t-32 210.5q-5 32 -8 64t-7 62t-10 57.5t-18 50.5q3 27 23.5 42.5t44.5 17t44 -13t23 -46.5q1 -15 -0.5 -31.5t-3.5 -35.5t-3.5 -39t1.5 -42
q3 -28 10.5 -64.5l16 -75l16 -74t12.5 -62.5q14 24 21.5 54t14 61t15 60.5t23.5 51.5q-1 12 -3.5 20.5t-4.5 17t-2 17t4 19.5q15 9 35 11.5t39 -0.5t34 -12t21 -24q-9 -53 -7.5 -108t8.5 -110t17 -109l19 -103q14 12 20 27t8.5 32.5t3.5 35t5 34.5q7 30 17.5 59.5l21.5 59.5
l22 60t19 61q6 22 9.5 45.5t9 46t13.5 43t23 37.5q-2 20 2 34.5t10 26.5q18 7 36 7.5t33.5 -4.5t26.5 -15.5t15 -24.5q-27 -56 -51 -114.5t-35 -131.5z" />
    <glyph glyph-name="x" unicode="x" horiz-adv-x="495" 
d="M412 48q2 -9 3 -27.5t4 -29.5q5 -17 13.5 -34t15 -33t7 -30t-9.5 -26q-7 -8 -20.5 -11t-29.5 -2.5t-31.5 3t-25.5 7.5q-8 45 -13.5 85t-12 76t-15 70t-21.5 68q-6 16 -7 27.5t-6 26.5q0 -1 -0.5 2.5t-1.5 8t-1.5 8.5t-0.5 3q-10 -21 -24 -39.5t-25 -38.5
q-15 -31 -25.5 -65.5t-19.5 -70l-17.5 -72t-20.5 -70.5q-9 -25 -27.5 -47.5t-47.5 -36.5q-15 11 -32 20t-20 27l85.5 241t112.5 260q-5 12 -5 24t-5 24l-37.5 92t-36.5 82q-8 17 -17.5 35t-17.5 35l-17 33t-15.5 35t-8 37t5.5 40q4 5 12.5 9t18 5.5t18 0t13.5 -7.5
q14 -16 30 -49.5l32 -68.5q14 -31 25.5 -62.5t26.5 -67.5l23 -48.5t23 -49.5l27.5 64t29.5 64q12 23 27.5 47.5t26.5 50.5q6 15 11 32l10 33t11 28.5t15 18.5q10 7 21.5 5t21.5 -8.5t17.5 -16t10.5 -16.5q-12 -24 -20.5 -50.5l-17 -55l-18 -58t-22.5 -58.5
q-13 -27 -28.5 -52.5t-27.5 -51.5q-8 -20 -13.5 -42t-14.5 -42q0 -1 3 -18t8 -42.5t12 -55t15 -53.5q11 -33 23.5 -64t17.5 -57z" />
    <glyph glyph-name="y" unicode="y" horiz-adv-x="608" 
d="M571 773q21 -12 29 -28t8 -31t-5.5 -26t-11.5 -13l-2 -2q-18 -13 -31 -33l-25 -40l-50.5 -80l-66 -102l-66 -104.5t-49.5 -86.5q6 -33 7.5 -53.5t1 -40t-1 -41.5t3.5 -58q1 -10 0.5 -31.5t-1.5 -45t0 -44t5 -28.5q2 -4 0 -18t-10 -29t-23 -26.5t-39 -11.5
q-25 0 -39.5 10.5t-21.5 24t-7.5 26t4.5 16.5q0 1 0.5 1.5t0.5 1.5q5 10 8.5 32t6 49.5t4 57.5t2.5 56q1 28 1.5 50.5t0 41t-1 34.5t0.5 32l1 1q-5 15 -16 41l-25 58l-29.5 67l-29 66.5l-24.5 57.5t-16 40q-4 10 -7.5 14t-5.5 7.5t-3 9t0 18.5q-3 13 -7 19.5l-7 11.5
t-4.5 10t-0.5 14q-12 21 -21 43t-8 40.5t14.5 32t46.5 16.5q64 -20 67 -98q13 -19 22 -48t13 -56q1 -8 8.5 -27.5l18 -45l22.5 -54l23 -54.5l19 -46t11 -29q10 18 26.5 43.5l35.5 55l39 61l37.5 60l31.5 53t20 40.5q8 19 10 39t2 37q0 4 8 15.5t22.5 21.5t33.5 13.5t40 -8.5
z" />
    <glyph glyph-name="z" unicode="z" horiz-adv-x="697" 
d="M696 -58q6 -47 -11.5 -76t-49 -44t-73.5 -19.5t-84 -1.5t-80.5 11t-63.5 16h-1q-28 12 -49.5 20t-31.5 9q-18 2 -39 10.5t-43.5 19.5l-46 21.5t-45.5 15.5t-43 12t-30 21t-1.5 39t41.5 66q18 27 54.5 68.5l82.5 91.5l98 107.5t100.5 118t89 122t64.5 119.5
q-15 5 -37.5 8.5t-48 5.5t-51 2.5t-45.5 -0.5q-18 -1 -37.5 -1t-39 -1.5t-37 -4.5t-31.5 -10q-18 -9 -32 -21t-26 -19t-24 -4.5t-27 22.5q-12 16 -11.5 30.5t9.5 27t24.5 23t32 18t32 12.5t26.5 7q25 4 58 3t67 3t67.5 7.5t60.5 2.5q17 -1 34 -6.5t31 -5.5q4 -1 7 0h1
q2 0 2 1l22.5 5t28.5 3t29.5 -3.5t24.5 -14.5q10 -12 17.5 -27t8.5 -31.5t-5.5 -32t-23.5 -27.5q-10 -18 -36 -53.5l-62 -81l-78.5 -98.5l-85.5 -106.5l-83.5 -104l-72.5 -91.5t-51.5 -69t-20.5 -36q74 -47 148.5 -86t149.5 -49q37 -5 78 1.5t79 27.5q-13 29 -36.5 47
t-51.5 28.5t-57.5 14t-53.5 3.5q-25 -20 -49.5 -17t-38.5 18t-14.5 37t22.5 42q14 12 42.5 15.5t60.5 1.5t61 -7.5t44 -11.5q28 -11 51 -28t42.5 -36.5t36 -40z" />
  </font>
</defs>
</svg>
